<svg id="svg" version="1.1" xmlns="http://www.w3.org/2000/svg" xmlns:xlink="http://www.w3.org/1999/xlink" width="400" height="400" viewBox="0, 0, 400,400"><g id="svgg"><path id="path0" d="M136.000 88.000 L 136.000 168.000 99.000 168.015 C 46.764 168.036,29.634 179.902,21.837 221.462 C 20.270 229.815,14.716 240.921,9.494 246.142 C -3.623 259.260,-3.588 283.235,9.568 295.594 C 14.830 300.538,22.276 313.001,26.115 323.291 C 29.954 333.581,35.435 344.717,38.296 348.037 C 41.701 351.989,42.713 359.920,41.227 370.999 C 35.882 410.852,73.715 412.297,93.620 373.000 L 100.205 360.000 152.000 360.000 L 203.795 360.000 210.380 373.000 C 220.799 393.569,228.287 400.000,241.820 400.000 C 262.408 400.000,271.066 380.677,259.859 359.737 C 255.882 352.305,257.458 352.000,299.859 352.000 C 326.620 352.000,344.000 353.575,344.000 356.000 C 344.000 358.222,354.667 360.000,368.000 360.000 L 392.000 360.000 392.000 184.000 L 392.000 8.000 264.000 8.000 L 136.000 8.000 136.000 88.000 M256.000 102.000 C 256.000 144.900,254.650 179.943,253.000 179.873 C 251.350 179.803,246.506 177.103,242.235 173.873 C 236.574 169.591,223.300 168.000,193.235 168.000 L 152.000 168.000 152.000 96.000 L 152.000 24.000 204.000 24.000 L 256.000 24.000 256.000 102.000 M376.000 180.000 L 376.000 336.000 320.204 336.000 L 264.408 336.000 270.576 321.000 C 273.969 312.750,281.077 301.402,286.372 295.781 C 300.127 281.182,299.533 259.111,285.000 244.818 L 274.000 234.000 272.706 129.000 L 271.411 24.000 323.706 24.000 L 376.000 24.000 376.000 180.000 M296.000 188.000 C 296.000 205.333,297.067 208.000,304.000 208.000 C 310.933 208.000,312.000 205.333,312.000 188.000 C 312.000 170.667,310.933 168.000,304.000 168.000 C 297.067 168.000,296.000 170.667,296.000 188.000 M223.625 189.226 C 249.114 198.157,265.281 234.234,247.275 242.000 C 242.174 244.200,234.400 252.781,230.000 261.068 C 222.765 274.695,220.852 275.887,210.000 273.523 C 171.019 265.031,119.106 265.164,83.850 273.847 C 75.481 275.908,72.798 273.997,66.000 261.136 C 61.600 252.811,53.826 244.200,48.725 242.000 C 30.719 234.234,46.886 198.157,72.375 189.226 C 90.594 182.842,205.406 182.842,223.625 189.226 M52.785 280.894 L 63.722 303.708 76.924 298.192 C 111.880 283.586,184.184 283.613,219.201 298.244 L 232.528 303.813 242.690 281.617 C 253.610 257.764,260.633 252.226,270.051 260.042 C 278.099 266.722,277.561 278.729,269.000 283.518 C 265.150 285.672,257.393 298.755,251.763 312.593 C 239.012 343.927,241.469 343.203,148.000 343.203 C 54.531 343.203,56.988 343.927,44.237 312.593 C 38.607 298.755,30.850 285.672,27.000 283.518 C 18.866 278.968,17.843 267.757,24.917 260.683 C 33.706 251.894,41.640 257.648,52.785 280.894 M71.272 370.000 C 66.813 379.787,60.000 383.611,60.000 376.327 C 60.000 368.167,65.173 360.000,70.342 360.000 C 74.743 360.000,74.927 361.979,71.272 370.000 M241.572 366.327 C 247.703 382.304,239.825 385.576,232.728 370.000 C 229.073 361.979,229.257 360.000,233.658 360.000 C 236.675 360.000,240.237 362.847,241.572 366.327 " stroke="none" fill="#000000" fill-rule="evenodd"></path></g></svg>